<svg viewBox="0 0 334 176" fill="none" xmlns="http://www.w3.org/2000/svg">
<g>
<path d="M224.544 28.3779C226.43 30.2634 225.677 32.9556 225.681 35.4599C225.677 36.2579 225.673 37.0558 225.669 37.8779C225.673 38.6758 225.677 39.4738 225.681 40.2959C225.671 46.2513 225.671 46.2513 224.544 47.3779C219.677 47.9187 216.217 47.0293 211.607 45.3779C206.606 43.5916 202.818 42.9722 197.544 43.3779C198.124 43.802 198.704 44.2261 199.302 44.6631C209.681 52.456 216.705 61.288 218.882 74.4184C220.135 86.4136 217.056 97.0558 209.857 106.753C203.138 114.517 195.174 119.079 185.544 122.378C186.8 122.669 188.055 122.961 189.349 123.261C212.953 128.951 212.953 128.951 218.767 138.261C220.667 143.437 220.522 149.261 218.88 154.495C214.824 162.43 206.608 167.332 198.544 170.378C175.348 177.19 149.271 178.912 126.857 168.565C118.144 163.74 113.156 157.662 109.544 148.378C108.557 144.318 108.383 140.559 108.544 136.378C110.439 134.483 113.816 134.841 116.357 134.565C121.487 133.964 126.095 133.021 130.982 131.253C135.828 129.515 139.414 128.632 144.544 129.378C147.368 132.255 147.917 134.368 147.95 138.335C147.972 139.283 147.994 140.231 148.017 141.208C148.026 142.192 148.035 143.176 148.044 144.19C148.107 150.971 148.228 156.359 151.544 162.378C156.001 166.612 159.379 167.528 165.419 167.565C166.448 167.58 167.476 167.594 168.536 167.608C173.045 167.263 175.677 166.293 178.794 163.003C183.17 156.439 182.239 146.998 181.544 139.378C180.438 134.922 178.41 132.221 175.107 129.003C168.825 126.138 162.036 125.786 155.232 124.991C141.912 123.246 129.506 118.284 120.443 107.991C118.625 105.527 117.057 103.038 115.544 100.378C115.111 99.6779 114.678 98.978 114.232 98.2568C111.204 92.3597 111.134 86.3127 111.044 79.8154C111.025 78.9288 111.007 78.0421 110.988 77.1286C111.09 66.4705 116.18 57.259 123.286 49.4677C128.644 44.4099 134.8 41.242 141.544 38.3779C142.35 38.035 143.155 37.6921 143.985 37.3388C155.463 33.3964 171.608 33.6669 183.13 37.331C186.445 37.3954 188.47 36.0194 191.349 34.4687C195.01 32.6493 198.848 31.6475 202.794 30.6279C203.62 30.4118 204.446 30.1957 205.298 29.9731C211.7 28.3916 217.946 27.4998 224.544 28.3779Z" fill="#ED843E"/>
<path d="M245.544 0.377851C247.67 1.15345 249.774 1.99178 251.857 2.87785C260.454 6.4374 268.531 6.01664 277.544 4.37785C278.479 7.40518 278.538 9.53969 277.986 12.6474C274.868 32.2035 275.25 51.6336 275.544 71.3779C276.121 70.7198 276.697 70.0617 277.291 69.3837C281.597 64.5233 285.881 60.0425 290.857 55.8778C296.113 51.2915 298.582 47.0102 300.544 40.3778C301.197 39.0376 301.862 37.7031 302.544 36.3778C306.523 36.349 310.502 36.3311 314.482 36.3153C315.618 36.307 316.754 36.2986 317.925 36.29C319.005 36.2867 320.084 36.2835 321.197 36.2802C322.697 36.2723 322.697 36.2723 324.228 36.2643C326.544 36.3778 326.544 36.3778 327.544 37.3778C327.391 41.3514 327.028 43.7376 324.607 46.9403C315.558 54.1424 304.759 59.0454 294.544 64.3779C295.343 64.4152 296.143 64.4526 296.966 64.4911C319.215 65.8229 319.215 65.8229 326.544 73.3779C332.395 81.6009 332.784 90.6137 332.982 100.44C333.237 108.904 334.081 116.841 335.923 125.101C336.544 128.378 336.544 128.378 336.544 134.378C322.354 134.378 308.164 134.378 293.544 134.378C294.544 124.378 294.544 124.378 295.587 119.827C296.998 113.111 296.88 106.312 296.86 99.4816C296.857 97.1842 296.88 94.888 296.906 92.5907C296.908 91.1096 296.908 89.6285 296.907 88.1474C296.917 87.4712 296.926 86.795 296.935 86.0983C296.887 81.1086 295.812 77.7333 293.544 73.3779C290.266 71.7388 288.166 71.8346 284.544 72.3779C280.081 76.5472 276.846 82.0819 276.285 88.2018C276.283 89.2177 276.281 90.2336 276.279 91.2802C276.275 92.4117 276.271 93.5431 276.267 94.7089C276.276 95.899 276.285 97.0892 276.294 98.3154C276.3 100.137 276.3 100.137 276.306 101.996C276.377 109.335 276.732 116.362 278.107 123.581C278.624 126.89 278.675 130.034 278.544 133.378C277.544 134.378 277.544 134.378 275.791 134.498C275.03 134.496 274.268 134.494 273.483 134.491C272.623 134.491 271.762 134.491 270.875 134.491C269.939 134.486 269.004 134.481 268.04 134.476C267.087 134.474 266.134 134.473 265.152 134.471C262.095 134.466 259.039 134.453 255.982 134.44C253.915 134.435 251.848 134.431 249.781 134.427C244.702 134.416 239.623 134.398 234.544 134.378C234.533 132.791 234.525 131.204 234.519 129.616C234.514 128.733 234.51 127.849 234.505 126.938C234.557 123.515 234.998 120.203 235.482 116.815C239.755 83.1679 239.905 46.1143 234.982 12.5419C234.457 8.75096 234.477 5.19809 234.544 1.37785C238.079 -0.389686 241.724 -0.132194 245.544 0.377851Z" fill="#ED833D"/>
<path d="M84.8802 44.8817C85.4293 45.3754 85.9784 45.8691 86.5442 46.3778C87.1966 46.9643 87.0442 46.8779 88.0442 47.8779C88.8907 48.7244 89.0442 48.8779 89.5442 49.3778C99.312 63.4444 98.9887 81.2222 99.1067 97.6278C99.137 114.788 99.137 114.788 102.171 131.629C102.294 132.206 102.417 132.783 102.544 133.378C100.742 135.18 98.2905 134.506 95.8923 134.517C95.1007 134.515 94.3091 134.513 93.4934 134.511C92.2779 134.512 92.2779 134.512 91.0378 134.514C89.3187 134.514 87.5995 134.512 85.8804 134.508C83.2533 134.503 80.6264 134.508 77.9993 134.515C76.3307 134.514 74.6621 134.513 72.9934 134.511C72.2079 134.513 71.4224 134.515 70.613 134.517C64.9672 134.493 64.9673 134.493 62.4598 133.812C60.4204 133.166 60.4204 133.166 58.0599 134.3C52.8266 135.905 47.7355 135.666 42.2942 135.628C40.6719 135.639 40.6719 135.639 39.0169 135.651C27.7933 135.624 16.5176 134.397 7.68876 126.776C0.267276 118.75 -0.2481 109.488 0.0676678 99.0966C0.698501 90.2719 5.04872 82.7354 11.5638 76.8387C21.6999 69.3616 31.9909 68.0544 44.2317 68.1903C45.3461 68.191 46.4605 68.1916 47.6087 68.1923C52.4061 68.2181 56.8507 68.3069 61.5442 69.3778C60.0938 57.2853 60.0938 57.2853 53.4817 47.4403C48.6885 44.8117 43.8718 44.9012 38.5442 45.3778C34.6121 47.0162 33.1428 48.5066 31.5442 52.3778C31.2652 54.6777 31.1692 56.9423 31.0833 59.2567C30.5442 61.3778 30.5442 61.3778 29.0403 63.1356C25.367 64.9637 22.0265 64.7756 17.9817 64.6903C17.2141 64.6935 16.4465 64.6968 15.6556 64.7001C11.7843 64.6629 9.83051 64.5687 6.54423 62.3778C5.687 57.7107 6.58308 54.7597 8.98173 50.8153C14.5316 43.2391 21.4328 39.6531 30.5599 37.8427C47.2007 35.5478 70.3364 35.5183 84.8802 44.8817Z" fill="#ED843E"/>
<path d="M169.544 42.3779C172.419 43.5029 172.419 43.5029 174.544 45.3779C175.411 46.1204 176.277 46.8629 177.169 47.6279C186.815 60.2863 183.7 85.303 181.794 100.003C180.565 106.336 178.695 111.332 173.982 115.815C169.358 118.779 164.888 119.028 159.544 118.378C154.683 115.993 152.098 113.12 149.544 108.378C147.773 102.504 147.248 97.2404 147.279 91.1278C147.277 90.2703 147.275 89.4128 147.273 88.5292C147.271 86.7275 147.275 84.9257 147.284 83.1239C147.294 80.3854 147.284 77.6476 147.271 74.9091C147.272 73.1487 147.275 71.3883 147.279 69.6279C147.275 68.8193 147.271 68.0107 147.266 67.1777C147.338 58.3242 149.047 51.3123 155.044 44.5654C159.321 41.1672 164.371 41.6648 169.544 42.3779Z" fill="#FEFCFA"/>
<path d="M52.9193 75.1279C53.6695 75.1021 54.4197 75.0764 55.1927 75.0498C58.4938 75.5104 59.9997 76.1648 62.5443 78.3779C63.2953 81.5532 63.1724 84.6883 63.1028 87.9365C63.0993 89.3476 63.0993 89.3476 63.0958 90.7871C63.086 92.7769 63.0642 94.7666 63.0313 96.7561C62.982 99.8004 62.9698 102.843 62.9642 105.888C62.9501 107.821 62.9339 109.754 62.9153 111.687C62.91 112.597 62.9046 113.508 62.8991 114.446C62.8831 115.297 62.8671 116.147 62.8506 117.024C62.8347 118.143 62.8347 118.143 62.8184 119.285C62.5033 121.691 61.7937 123.307 60.5443 125.378C57.2539 127.721 54.0648 127.707 50.1068 127.753C48.4381 127.795 48.4381 127.795 46.7357 127.839C42.7321 127.261 41.2798 126.353 38.5443 123.378C35.3472 117.026 35.1121 111.404 35.2318 104.378C35.2285 103.432 35.2253 102.486 35.222 101.511C35.2858 93.1342 36.1823 86.1592 41.5443 79.3779C45.1033 76.2503 48.2177 75.2242 52.9193 75.1279Z" fill="#FEFDFA"/>
</g>
<defs>
<clipPath >

</clipPath>
</defs>
</svg>
