<?xml version="1.0" encoding="UTF-8"?>
<svg version="1.1" xmlns="http://www.w3.org/2000/svg" width="420" height="428">
<path d="M0 0 C138.6 0 277.2 0 420 0 C420 141.24 420 282.48 420 428 C281.4 428 142.8 428 0 428 C0 286.76 0 145.52 0 0 Z " fill="#FEFEFE" transform="translate(0,0)"/>
<path d="M0 0 C1.8855253 1.8855253 1.13246689 4.57768831 1.13671875 7.08203125 C1.13285156 7.87996094 1.12898438 8.67789063 1.125 9.5 C1.12886719 10.29792969 1.13273437 11.09585938 1.13671875 11.91796875 C1.12660767 17.87339233 1.12660767 17.87339233 0 19 C-6.13157687 19.6967701 -11.09115929 17.78905509 -16.88671875 15.890625 C-20.50739854 14.85484709 -23.28085817 14.65403332 -27 15 C-26.25556641 15.51046875 -26.25556641 15.51046875 -25.49609375 16.03125 C-15.33469005 23.28113196 -9.04020556 31.80580224 -6 44 C-4.2432653 57.7514888 -8.23511 69.76891756 -16.625 80.625 C-22.6615172 87.31495463 -30.6665372 91.0377841 -39 94 C-37.74445313 94.29132813 -36.48890625 94.58265625 -35.1953125 94.8828125 C-11.59082318 100.57297 -11.59082318 100.57297 -5.77734375 109.8828125 C-3.87678676 115.05920391 -4.02229888 120.88285878 -5.6640625 126.1171875 C-9.71988794 134.05249814 -17.93609987 138.95431909 -26 142 C-48.5882277 148.63353279 -74.60016292 150.68694699 -96.5625 140.75 C-104.81542863 136.11752711 -111.87283842 129.6369782 -115.25 120.6875 C-116.11778136 116.42090829 -116.40062017 112.34160462 -116 108 C-114.10488664 106.10488664 -110.72811838 106.46292671 -108.1875 106.1875 C-103.0567094 105.58603929 -98.44863084 104.64325451 -93.5625 102.875 C-88.71581611 101.13750955 -85.12963847 100.25387077 -80 101 C-77.26402453 103.81356934 -76.62254273 105.86802792 -76.55859375 109.73828125 C-76.53216797 110.64126953 -76.50574219 111.54425781 -76.47851562 112.47460938 C-76.46498047 113.41111328 -76.45144531 114.34761719 -76.4375 115.3125 C-76.52894862 125.95923922 -76.52894862 125.95923922 -72.125 135.3125 C-66.0146863 140.16480794 -59.54959422 139.69270377 -52 139 C-48.99302219 138.08530912 -48.25583243 137.37776931 -46 135 C-43.26651989 129.71791284 -42.47916995 125.47430394 -42.5625 119.5625 C-42.57007324 118.81331299 -42.57764648 118.06412598 -42.58544922 117.29223633 C-42.79868105 110.15986506 -44.15452078 105.77251821 -49.4375 100.625 C-55.69180839 97.77215758 -62.45901258 97.38396249 -69.2421875 96.6484375 C-80.43139994 95.25320563 -91.34327343 91.42005135 -100 84 C-100 83.34 -100 82.68 -100 82 C-100.66 82 -101.32 82 -102 82 C-102 81.34 -102 80.68 -102 80 C-102.66 80 -103.32 80 -104 80 C-111.47176012 69.52153159 -115.39456792 58.88773109 -114 46 C-111.8186675 34.53085554 -106.15809171 24.52931512 -96.890625 17.265625 C-93.10305638 14.73014518 -89.1934222 12.77596776 -85 11 C-84.08992188 10.60425781 -83.17984375 10.20851562 -82.2421875 9.80078125 C-70.76626732 5.53101982 -56.9209836 5.45788198 -45 8 C-38.73911909 8.78261011 -34.24087598 6.64143854 -28.46484375 4.3125 C-19.21952978 0.81032921 -9.89102522 -0.88678157 0 0 Z " fill="#ED843D" transform="translate(266,140)"/>
<path d="M0 0 C4.67653256 0.01208406 7.90002774 0.90185992 12.125 2.875 C20.68815922 6.80672291 29.09420968 5.77396774 38.1875 4.375 C37.7249248 10.80236071 37.08373986 17.15349249 36.15625 23.53125 C34.85358651 33.30404642 34.96568425 43.03450133 35.0625 52.875 C35.07256391 54.68098454 35.08168365 56.4869746 35.08984375 58.29296875 C35.11155486 62.65378587 35.14589055 67.01432923 35.1875 71.375 C35.60942627 70.87145996 36.03135254 70.36791992 36.46606445 69.84912109 C39.95107085 65.76735716 43.52223947 62.06594818 47.57910156 58.55639648 C53.92060685 53.06059765 57.93496455 48.63936994 60.1875 40.375 C60.83895765 39.03416998 61.50377786 37.69966836 62.1875 36.375 C66.16665159 36.34613016 70.14577653 36.32824594 74.125 36.3125 C75.26130859 36.30412109 76.39761719 36.29574219 77.56835938 36.28710938 C78.64794922 36.28388672 79.72753906 36.28066406 80.83984375 36.27734375 C82.34019165 36.26948853 82.34019165 36.26948853 83.87084961 36.26147461 C86.1875 36.375 86.1875 36.375 87.1875 37.375 C87.03685787 41.29169541 86.68763085 43.70815886 84.3125 46.875 C75.52875439 54.51412154 64.58054676 59.35451944 54.1875 64.375 C55.38246094 64.48457031 56.57742188 64.59414062 57.80859375 64.70703125 C79.84486939 66.85115138 79.84486939 66.85115138 86.1875 73.375 C91.84346483 81.77814775 92.43718391 89.98125712 92.625 99.875 C92.87340696 108.54340911 93.66596622 116.67630903 95.56640625 125.1328125 C96.1875 128.375 96.1875 128.375 96.1875 134.375 C81.6675 134.375 67.1475 134.375 52.1875 134.375 C54.1875 124.375 54.1875 124.375 54.80932617 121.34692383 C56.25856635 113.62373929 56.52769614 106.01225561 56.50317383 98.18237305 C56.49997756 96.0475109 56.52370258 93.91399258 56.54882812 91.77929688 C56.5510987 90.39843921 56.55180574 89.0175779 56.55078125 87.63671875 C56.55376221 86.40912842 56.55674316 85.18153809 56.55981445 83.91674805 C56.12102664 79.74265312 55.1041004 77.09343257 53.1875 73.375 C49.90945 71.735975 47.80928526 71.83173221 44.1875 72.375 C38.78065557 77.19359978 35.62745133 84.03659105 34.90625 91.1484375 C34.64500381 100.13966049 35.87972222 108.95955678 37.11962891 117.84765625 C37.25546387 118.83378906 37.39129883 119.81992188 37.53125 120.8359375 C37.65693359 121.71040527 37.78261719 122.58487305 37.91210938 123.48583984 C38.25663815 127.10033763 38.1875 130.74411935 38.1875 134.375 C23.6675 134.375 9.1475 134.375 -5.8125 134.375 C-5.8125 125.3989334 -5.8125 125.3989334 -5.41015625 121.5546875 C-5.32491699 120.70277832 -5.23967773 119.85086914 -5.15185547 118.97314453 C-5.06049316 118.07450684 -4.96913086 117.17586914 -4.875 116.25 C-1.83861004 84.02785114 -1.44201508 51.21548854 -4.56445312 18.98828125 C-4.93350571 15.10015242 -5.22737622 11.20841233 -5.5 7.3125 C-5.58636719 6.16652344 -5.67273438 5.02054687 -5.76171875 3.83984375 C-5.77847656 3.02644531 -5.79523438 2.21304688 -5.8125 1.375 C-4.15655198 -0.28094802 -2.28157488 0.08486545 0 0 Z " fill="#EE843C" transform="translate(281.8125,111.625)"/>
<path d="M0 0 C1.14103935 -0.00287018 1.14103935 -0.00287018 2.30513 -0.00579834 C3.90776909 -0.00715217 5.51041944 -0.00351208 7.11303711 0.00488281 C9.52679024 0.01551928 11.93978646 0.00499896 14.35351562 -0.0078125 C37.50658943 -0.03286639 37.50658943 -0.03286639 45.61328125 5.265625 C46.433125 5.78125 47.25296875 6.296875 48.09765625 6.828125 C48.97164062 7.5396875 48.97164062 7.5396875 49.86328125 8.265625 C49.86328125 8.925625 49.86328125 9.585625 49.86328125 10.265625 C50.52328125 10.265625 51.18328125 10.265625 51.86328125 10.265625 C60.88308912 21.62204048 61.95722792 36.17971319 62.07421875 50.13671875 C62.10227821 52.02930566 62.13094261 53.92188368 62.16015625 55.81445312 C62.20137905 58.76114737 62.23832189 61.70767382 62.26464844 64.65454102 C62.29242528 67.52393623 62.33827577 70.39260754 62.38671875 73.26171875 C62.38997162 74.13074326 62.39322449 74.99976776 62.39657593 75.89512634 C62.50028789 81.11871026 63.31194469 85.38563913 65.2237854 90.25794983 C65.86328125 92.265625 65.86328125 92.265625 65.86328125 96.265625 C60.52474301 96.2903616 55.18623822 96.3085024 49.84765625 96.32055664 C48.03189513 96.32558241 46.21613805 96.33240403 44.40039062 96.34106445 C41.78905235 96.35320689 39.17776763 96.35887091 36.56640625 96.36328125 C35.75584778 96.36844254 34.94528931 96.37360382 34.11016846 96.37892151 C28.28500882 96.37950006 28.28500882 96.37950006 25.77191162 95.70091248 C23.73911645 95.05389398 23.73911645 95.05389398 21.3828125 96.1875 C16.12981858 97.79663021 11.01204033 97.55397205 5.55078125 97.515625 C4.46087891 97.52335937 3.37097656 97.53109375 2.24804688 97.5390625 C-8.86444146 97.51233372 -21.1200067 96.08442776 -29.52734375 88.08203125 C-35.48671334 81.35604373 -36.59699206 74.96886207 -36.69921875 66.203125 C-36.7139624 65.36442871 -36.72870605 64.52573242 -36.74389648 63.66162109 C-36.57813772 53.52353708 -32.2872507 46.21795457 -25.13671875 39.265625 C-13.59763182 28.33691799 2.48410353 29.77136216 17.20703125 30.08862305 C19.83709707 30.26388019 22.2942828 30.68765852 24.86328125 31.265625 C24.1147758 22.91591771 23.06428251 15.38263979 16.86328125 9.265625 C11.95854306 6.76107784 7.25904342 6.68877543 1.86328125 7.265625 C-1.12457455 8.51056492 -2.55151106 9.31518131 -4.23828125 12.0546875 C-5.57061402 15.33338466 -5.48326051 18.51876793 -5.59765625 22.0234375 C-6.13671875 24.265625 -6.13671875 24.265625 -7.90429688 25.38916016 C-10.24540959 26.30829781 -11.89238146 26.52341504 -14.39453125 26.53125 C-15.57982422 26.53511719 -15.57982422 26.53511719 -16.7890625 26.5390625 C-17.60503906 26.53132813 -18.42101562 26.52359375 -19.26171875 26.515625 C-20.08542969 26.52335937 -20.90914062 26.53109375 -21.7578125 26.5390625 C-22.54542969 26.53648437 -23.33304688 26.53390625 -24.14453125 26.53125 C-24.8627002 26.52899414 -25.58086914 26.52673828 -26.32080078 26.52441406 C-28.13671875 26.265625 -28.13671875 26.265625 -30.13671875 24.265625 C-30.90028216 19.58879913 -30.10772888 16.65281474 -27.69921875 12.703125 C-20.85226571 3.24011914 -11.43127751 -0.0648455 0 0 Z " fill="#EE843C" transform="translate(78.13671875,149.734375)"/>
<path d="M0 0 C2.3671875 1.0234375 2.3671875 1.0234375 4 2 C4 2.66 4 3.32 4 4 C4.66 4 5.32 4 6 4 C11.90182761 14.22983453 12.37162687 25.13678707 12.3125 36.75 C12.30621582 38.44527832 12.30621582 38.44527832 12.29980469 40.17480469 C12.14925689 51.389014 11.96203362 62.72177724 5 72 C0.96511235 75.54581036 -2.56661409 76.30360179 -7.94140625 76.21484375 C-12.25612807 75.76454071 -15.09611896 73.8522307 -18.1875 70.9375 C-24.91188007 60.03936678 -24.19722874 46.34847442 -24.25 34 C-24.270625 32.7934375 -24.29125 31.586875 -24.3125 30.34375 C-24.35316104 20.99171016 -23.16015025 12.02690039 -18 4 C-12.84357793 -1.02420612 -6.80980136 -0.81565866 0 0 Z " fill="#FDFBF9" transform="translate(212,154)"/>
<path d="M0 0 C3 2 3 2 3.38768005 3.83930969 C3.39308304 4.58367783 3.39848602 5.32804596 3.40405273 6.0949707 C3.41673691 6.93957352 3.42942108 7.78417633 3.44248962 8.65437317 C3.43955399 9.56893784 3.43661835 10.4835025 3.43359375 11.42578125 C3.4388356 12.36552292 3.44407745 13.30526459 3.44947815 14.27348328 C3.45591001 16.26491304 3.45454636 18.25638073 3.44604492 20.24780273 C3.43756205 23.29024437 3.46623599 26.33079224 3.49804688 29.37304688 C3.49965966 31.3072911 3.49907989 33.24153865 3.49609375 35.17578125 C3.51294472 36.53851921 3.51294472 36.53851921 3.53013611 37.92878723 C3.48384823 42.14292183 3.37132722 44.40550546 1.09399414 48.05151367 C-2.23821948 51.15217788 -4.33543544 51.1837549 -8.8125 51.25 C-9.85019531 51.27578125 -10.88789062 51.3015625 -11.95703125 51.328125 C-16.20487291 50.87007789 -18.81261578 49.2297908 -21.75 46.1875 C-24.93007297 40.6223723 -24.21630637 33.48332149 -24.25 27.25 C-24.270625 26.3115625 -24.29125 25.373125 -24.3125 24.40625 C-24.35609676 16.51523648 -23.57334897 8.52229659 -18.1875 2.375 C-13.03206487 -1.54978287 -6.12582609 -0.80035919 0 0 Z " fill="#FEFCFA" transform="translate(101,188)"/>
<path d="M0 0 C0.99 0 1.98 0 3 0 C3 1.32 3 2.64 3 4 C2.34 4.66 1.68 5.32 1 6 C1.20625 6.78375 1.4125 7.5675 1.625 8.375 C2 11 2 11 0.4375 13.25 C-2.41414041 15.29733158 -4.53734736 15.6852134 -8 16 C-8 16.66 -8 17.32 -8 18 C-7.37351563 18.04898437 -6.74703125 18.09796875 -6.1015625 18.1484375 C-5.28429687 18.22320312 -4.46703125 18.29796875 -3.625 18.375 C-2.81289062 18.44460938 -2.00078125 18.51421875 -1.1640625 18.5859375 C1 19 1 19 3 21 C3.35473694 23.7669481 3.47600923 25.33358708 1.828125 27.640625 C-0.69353166 29.51570303 -2.45170793 29.3663486 -5.5625 29.3125 C-6.53316406 29.30863281 -7.50382813 29.30476563 -8.50390625 29.30078125 C-11 29 -11 29 -13 27 C-12.625 24.5 -12.625 24.5 -12 22 C-12 21.34 -12 20.68 -12 20 C-11.814375 18.989375 -11.62875 17.97875 -11.4375 16.9375 C-11.293125 15.968125 -11.14875 14.99875 -11 14 C-11.33 13.67 -11.66 13.34 -12 13 C-12.45070423 7.81690141 -12.45070423 7.81690141 -11 5.1875 C-7.81931546 3.29896856 -4.66530121 3.30043453 -1 3 C-0.67 2.01 -0.34 1.02 0 0 Z " fill="#49C4C9" transform="translate(196,306)"/>
<path d="M0 0 C1.19109375 0.00773437 1.19109375 0.00773437 2.40625 0.015625 C3.2003125 0.01046875 3.994375 0.0053125 4.8125 0 C6.90625 0.265625 6.90625 0.265625 8.90625 2.265625 C9.21224063 4.83479157 9.41712087 7.31320884 9.53125 9.890625 C9.56992187 10.59703125 9.60859375 11.3034375 9.6484375 12.03125 C9.74272724 13.77561024 9.82557891 15.52058191 9.90625 17.265625 C7.78152424 17.31949129 5.65641348 17.35835571 3.53125 17.390625 C2.34789062 17.41382813 1.16453125 17.43703125 -0.0546875 17.4609375 C-3.09375 17.265625 -3.09375 17.265625 -5.09375 15.265625 C-5.03125 12.828125 -5.03125 12.828125 -4.09375 10.265625 C-0.77410674 7.66374244 0.59941041 7.265625 4.90625 7.265625 C4.24625 5.615625 3.58625 3.965625 2.90625 2.265625 C1.91625 2.265625 0.92625 2.265625 -0.09375 2.265625 C-0.75375 3.585625 -1.41375 4.905625 -2.09375 6.265625 C-3.08375 6.265625 -4.07375 6.265625 -5.09375 6.265625 C-4.40878186 2.84078431 -3.87023579 0.49100006 0 0 Z " fill="#53C9CB" transform="translate(23.09375,309.734375)"/>
<path d="M0 0 C0.80308594 -0.02578125 1.60617188 -0.0515625 2.43359375 -0.078125 C3.48740234 0.08429688 3.48740234 0.08429688 4.5625 0.25 C6.98729736 3.88719605 6.94912577 6.10703482 7.1875 10.4375 C7.26226562 11.70980469 7.33703125 12.98210937 7.4140625 14.29296875 C7.46304688 15.26878906 7.51203125 16.24460937 7.5625 17.25 C5.43777424 17.30386629 3.31266348 17.34273071 1.1875 17.375 C0.00414062 17.39820313 -1.17921875 17.42140625 -2.3984375 17.4453125 C-5.4375 17.25 -5.4375 17.25 -7.4375 15.25 C-7.6875 12.75 -7.6875 12.75 -7.4375 10.25 C-4.43132731 7.24382731 -1.61368402 7.65414684 2.5625 7.25 C1.9025 5.6 1.2425 3.95 0.5625 2.25 C-0.4275 2.25 -1.4175 2.25 -2.4375 2.25 C-3.0975 3.57 -3.7575 4.89 -4.4375 6.25 C-5.4275 5.92 -6.4175 5.59 -7.4375 5.25 C-5.33346454 0.90166006 -4.90407852 0.09415831 0 0 Z " fill="#51C4C9" transform="translate(162.4375,309.75)"/>
<path d="M0 0 C1.20462891 -0.02126953 1.20462891 -0.02126953 2.43359375 -0.04296875 C4.5625 0.1875 4.5625 0.1875 6.5625 2.1875 C6.7578125 5.2265625 6.7578125 5.2265625 6.6875 8.8125 C6.66945313 10.00101562 6.65140625 11.18953125 6.6328125 12.4140625 C6.60960938 13.32929688 6.58640625 14.24453125 6.5625 15.1875 C7.2225 15.5175 7.8825 15.8475 8.5625 16.1875 C5.47015472 17.08643758 2.65452643 17.35099234 -0.5625 17.375 C-1.86574219 17.39626953 -1.86574219 17.39626953 -3.1953125 17.41796875 C-5.4375 17.1875 -5.4375 17.1875 -7.4375 15.1875 C-7.5 12.75 -7.5 12.75 -6.4375 10.1875 C-2.93601158 8.30707103 -0.4294694 7.1875 3.5625 7.1875 C2.27961243 4.63246043 2.27961243 4.63246043 0.5625 2.1875 C-0.4275 2.1875 -1.4175 2.1875 -2.4375 2.1875 C-2.7675 3.5075 -3.0975 4.8275 -3.4375 6.1875 C-4.4275 6.1875 -5.4175 6.1875 -6.4375 6.1875 C-5.33458299 0.04267666 -5.33458299 0.04267666 0 0 Z " fill="#55C2C7" transform="translate(65.4375,309.8125)"/>
<path d="M0 0 C1.20462891 -0.02126953 1.20462891 -0.02126953 2.43359375 -0.04296875 C4.5625 0.1875 4.5625 0.1875 6.5625 2.1875 C6.7578125 5.2265625 6.7578125 5.2265625 6.6875 8.8125 C6.66945313 10.00101562 6.65140625 11.18953125 6.6328125 12.4140625 C6.60960938 13.32929688 6.58640625 14.24453125 6.5625 15.1875 C7.2225 15.5175 7.8825 15.8475 8.5625 16.1875 C5.47015472 17.08643758 2.65452643 17.35099234 -0.5625 17.375 C-1.86574219 17.39626953 -1.86574219 17.39626953 -3.1953125 17.41796875 C-5.4375 17.1875 -5.4375 17.1875 -7.4375 15.1875 C-7.10778521 11.89035207 -6.8148161 10.5648161 -4.4375 8.1875 C-1.78212628 7.62229997 0.85394713 7.44961802 3.5625 7.1875 C2.9025 5.5375 2.2425 3.8875 1.5625 2.1875 C0.2425 2.1875 -1.0775 2.1875 -2.4375 2.1875 C-3.0975 3.5075 -3.7575 4.8275 -4.4375 6.1875 C-5.0975 6.1875 -5.7575 6.1875 -6.4375 6.1875 C-5.33458299 0.04267666 -5.33458299 0.04267666 0 0 Z " fill="#63C7CC" transform="translate(116.4375,309.8125)"/>
<path d="M0 0 C2 2 2 2 2.1875 4.5625 C2 7 2 7 1 8 C-0.68608966 8.07205511 -2.37500659 8.08386068 -4.0625 8.0625 C-4.98160156 8.05347656 -5.90070313 8.04445313 -6.84765625 8.03515625 C-7.55792969 8.02355469 -8.26820313 8.01195312 -9 8 C-7.91215032 11.24983135 -7.91215032 11.24983135 -6 14 C-3.32941149 14.14115161 -0.67567762 14.04247107 2 14 C0 17 0 17 -2.0234375 17.46875 C-6.12144239 17.52320854 -8.28345515 17.54593893 -11.625 15 C-13.4635235 10.988676 -13.33130439 8.16793987 -12 4 C-8.89443275 -0.9689076 -5.3744595 -0.52010898 0 0 Z " fill="#53C4C8" transform="translate(362,310)"/>
<path d="M0 0 C2 2 2 2 2.1875 4.5625 C2 7 2 7 1 8 C-0.68608966 8.07205511 -2.37500659 8.08386068 -4.0625 8.0625 C-4.98160156 8.05347656 -5.90070313 8.04445313 -6.84765625 8.03515625 C-7.55792969 8.02355469 -8.26820313 8.01195312 -9 8 C-7.91215032 11.24983135 -7.91215032 11.24983135 -6 14 C-3.32941149 14.14115161 -0.67567762 14.04247107 2 14 C0 17 0 17 -2.05859375 17.43359375 C-8.36303419 17.44394587 -8.36303419 17.44394587 -11.0625 15.5625 C-12.48774162 11.66683957 -12.65308927 8.09119142 -12 4 C-9.05531891 -1.03049686 -5.29584308 -0.51250094 0 0 Z " fill="#50C2C8" transform="translate(245,310)"/>
<path d="M0 0 C0.99 0 1.98 0 3 0 C3.33 4.62 3.66 9.24 4 14 C4.928125 13.01 5.85625 12.02 6.8125 11 C8.39453125 9.3125 8.39453125 9.3125 10 8 C10.99 8 11.98 8 13 8 C11.63016497 11.16115776 11.0109362 11.9927092 8 14 C9.1357441 16.55542423 10.34872527 18.43077828 12.125 20.625 C14 23 14 23 14 25 C11.75 24.875 11.75 24.875 9 24 C6.8125 21 6.8125 21 5 18 C4.34 17.67 3.68 17.34 3 17 C3 19.64 3 22.28 3 25 C2.01 25 1.02 25 0 25 C0 16.75 0 8.5 0 0 Z " fill="#4DC4CB" transform="translate(285,302)"/>
<path d="M0 0 C0.99 0 1.98 0 3 0 C3 4.95 3 9.9 3 15 C7.87727471 11.51255856 7.87727471 11.51255856 10 8 C11.32 8.33 12.64 8.66 14 9 C12.35 10.65 10.7 12.3 9 14 C10.45044271 18.10958767 12.51110752 21.43258745 15 25 C11.41209425 24.70100785 10.21833224 24.23013399 7.6875 21.5625 C6 19 6 19 6 17 C5.01 17 4.02 17 3 17 C3 19.64 3 22.28 3 25 C2.01 25 1.02 25 0 25 C0 16.75 0 8.5 0 0 Z " fill="#4AC4C8" transform="translate(332,302)"/>
<path d="M0 0 C1.17755859 -0.02126953 1.17755859 -0.02126953 2.37890625 -0.04296875 C4.4375 0.1875 4.4375 0.1875 6.4375 2.1875 C6.79223694 4.9544481 6.91350923 6.52108708 5.265625 8.828125 C2.74396834 10.70320303 0.98579207 10.5538486 -2.125 10.5 C-3.09566406 10.49613281 -4.06632813 10.49226563 -5.06640625 10.48828125 C-7.5625 10.1875 -7.5625 10.1875 -9.5625 8.1875 C-9.2355244 5.57169521 -8.74210932 3.54671863 -7.5625 1.1875 C-4.76092552 0.25364184 -2.90802197 0.02395405 0 0 Z " fill="#57BDC1" transform="translate(192.5625,324.8125)"/>
<path d="M0 0 C0.99 0 1.98 0 3 0 C3.67305018 1.60149886 4.33822227 3.20631029 5 4.8125 C5.37125 5.70582031 5.7425 6.59914063 6.125 7.51953125 C7 10 7 10 7 13 C7.66 13 8.32 13 9 13 C9.20496094 12.31292969 9.40992188 11.62585938 9.62109375 10.91796875 C9.89050781 10.01691406 10.15992188 9.11585938 10.4375 8.1875 C10.70433594 7.29417969 10.97117187 6.40085937 11.24609375 5.48046875 C11.80387873 3.64526945 12.39344575 1.81966274 13 0 C13.99 0 14.98 0 16 0 C13.93157422 9.1570933 9.55166014 16.8913418 5 25 C3.68 24.67 2.36 24.34 1 24 C1.680625 23.0925 2.36125 22.185 3.0625 21.25 C5.24542599 18.3521614 5.24542599 18.3521614 4.75 16.109375 C3.58249148 12.8257573 2.21162846 9.63995826 0.83984375 6.4375 C0 4 0 4 0 0 Z " fill="#4EC6CC" transform="translate(387,310)"/>
<path d="M0 0 C0.99 0 1.98 0 3 0 C3.06058594 0.84304688 3.12117187 1.68609375 3.18359375 2.5546875 C3.26738281 3.65039062 3.35117188 4.74609375 3.4375 5.875 C3.51871094 6.96554687 3.59992188 8.05609375 3.68359375 9.1796875 C3.83001703 11.94728971 3.83001703 11.94728971 5 14 C6.66611905 14.042721 8.33382885 14.04063832 10 14 C11.87824891 12.12175109 11.39102397 8.96064724 11.5625 6.4375 C11.64628906 5.23996094 11.73007813 4.04242188 11.81640625 2.80859375 C11.87699219 1.88175781 11.93757812 0.95492188 12 0 C12.99 0 13.98 0 15 0 C15 5.61 15 11.22 15 17 C5.0390625 17.29296875 5.0390625 17.29296875 2 17 C-0.49118953 13.2632157 -0.2065226 11.25548181 -0.125 6.8125 C-0.10695312 5.54019531 -0.08890625 4.26789063 -0.0703125 2.95703125 C-0.04710937 1.98121094 -0.02390625 1.00539063 0 0 Z " fill="#4CC2C7" transform="translate(203,310)"/>
<path d="M0 0 C0.99 0 1.98 0 3 0 C4.65 3.96 6.3 7.92 8 12 C9.79068573 9.3139714 10.66055791 7.3373411 11.625 4.3125 C11.88539063 3.50425781 12.14578125 2.69601562 12.4140625 1.86328125 C12.60742188 1.24839844 12.80078125 0.63351562 13 0 C13.99 0 14.98 0 16 0 C13.93157422 9.1570933 9.55166014 16.8913418 5 25 C3.68 24.67 2.36 24.34 1 24 C1.680625 23.29875 2.36125 22.5975 3.0625 21.875 C5.25031978 19.20637767 5.25031978 19.20637767 5 16.3125 C3.85331212 12.5140964 2.41155208 8.91074877 0.83984375 5.26953125 C0 3 0 3 0 0 Z " fill="#4EC5C9" transform="translate(302,310)"/>
<path d="M0 0 C1.32 0.33 2.64 0.66 4 1 C4.33 0.67 4.66 0.34 5 0 C10.73611111 -0.27314815 10.73611111 -0.27314815 13 0 C15 2 15 2 15.1953125 5.4765625 C15.18201493 6.85950968 15.15816232 8.24238654 15.125 9.625 C15.11597656 10.33140625 15.10695313 11.0378125 15.09765625 11.765625 C15.07407603 13.51056098 15.03820461 15.25532295 15 17 C14.01 17 13.02 17 12 17 C11.67 12.71 11.34 8.42 11 4 C6.39467611 2.54685336 6.39467611 2.54685336 4 4 C3.53045739 7.04581269 3.53045739 7.04581269 3.375 10.5625 C3.30023438 11.76003906 3.22546875 12.95757812 3.1484375 14.19140625 C3.09945312 15.11824219 3.05046875 16.04507812 3 17 C2.01 17 1.02 17 0 17 C0 11.39 0 5.78 0 0 Z " fill="#49C3C6" transform="translate(38,310)"/>
<path d="M0 0 C1.8871875 0.061875 1.8871875 0.061875 3.8125 0.125 C4.1425 1.445 4.4725 2.765 4.8125 4.125 C1.8425 3.795 -1.1275 3.465 -4.1875 3.125 C-4.1875 3.785 -4.1875 4.445 -4.1875 5.125 C-3.54941406 5.35574219 -2.91132813 5.58648437 -2.25390625 5.82421875 C4.50337225 8.49128811 4.50337225 8.49128811 6.0625 11.6875 C5.8125 14.125 5.8125 14.125 4.58203125 15.7578125 C2.33241399 17.49592738 1.06425236 17.49777229 -1.75 17.4375 C-2.53503906 17.43363281 -3.32007813 17.42976563 -4.12890625 17.42578125 C-6.1875 17.125 -6.1875 17.125 -8.1875 15.125 C-8.1875 14.135 -8.1875 13.145 -8.1875 12.125 C-7.1975 12.125 -6.2075 12.125 -5.1875 12.125 C-4.1975 13.61 -4.1975 13.61 -3.1875 15.125 C-1.5375 14.795 0.1125 14.465 1.8125 14.125 C1.14622488 11.00903088 1.14622488 11.00903088 -1.25390625 9.95703125 C-2.48947266 9.45236328 -2.48947266 9.45236328 -3.75 8.9375 C-4.57628906 8.59332031 -5.40257812 8.24914062 -6.25390625 7.89453125 C-6.89199219 7.64058594 -7.53007812 7.38664062 -8.1875 7.125 C-7.875 4.75 -7.875 4.75 -7.1875 2.125 C-4.09861478 0.06574319 -3.47814073 -0.1140374 0 0 Z " fill="#54C8CA" transform="translate(274.1875,309.875)"/>
<path d="M0 0 C2.01822917 0.06510417 4.03645833 0.13020833 6.0546875 0.1953125 C6.7146875 1.5153125 7.3746875 2.8353125 8.0546875 4.1953125 C5.38802083 3.52864583 2.72135417 2.86197917 0.0546875 2.1953125 C-0.2753125 3.1853125 -0.6053125 4.1753125 -0.9453125 5.1953125 C3.5096875 7.1753125 3.5096875 7.1753125 8.0546875 9.1953125 C8.1796875 12.0703125 8.1796875 12.0703125 8.0546875 15.1953125 C6.0546875 17.1953125 6.0546875 17.1953125 3.99609375 17.4609375 C3.21105469 17.45578125 2.42601562 17.450625 1.6171875 17.4453125 C0.44349609 17.45304687 0.44349609 17.45304687 -0.75390625 17.4609375 C-2.9453125 17.1953125 -2.9453125 17.1953125 -5.9453125 15.1953125 C-5.6153125 14.2053125 -5.2853125 13.2153125 -4.9453125 12.1953125 C-4.3884375 12.5046875 -3.8315625 12.8140625 -3.2578125 13.1328125 C-0.81990817 14.25293071 1.41692936 14.75568614 4.0546875 15.1953125 C4.0546875 13.8753125 4.0546875 12.5553125 4.0546875 11.1953125 C-0.4003125 9.2153125 -0.4003125 9.2153125 -4.9453125 7.1953125 C-3.87057023 0.38861147 -3.87057023 0.38861147 0 0 Z " fill="#59C5C8" transform="translate(132.9453125,309.8046875)"/>
<path d="M0 0 C0.99 0 1.98 0 3 0 C3 1.65 3 3.3 3 5 C5.31 5 7.62 5 10 5 C10 5.66 10 6.32 10 7 C8.02 7 6.04 7 4 7 C4 11.29 4 15.58 4 20 C5.98 19.67 7.96 19.34 10 19 C9.34 19.99 8.68 20.98 8 22 C5 22.3125 5 22.3125 2 22 C0 20 0 20 -0.1953125 16.9609375 C-0.16050781 15.18589844 -0.16050781 15.18589844 -0.125 13.375 C-0.10695312 12.18648438 -0.08890625 10.99796875 -0.0703125 9.7734375 C-0.04710937 8.85820312 -0.02390625 7.94296875 0 7 C-0.99 6.67 -1.98 6.34 -3 6 C-2.01 5.67 -1.02 5.34 0 5 C0 3.35 0 1.7 0 0 Z " fill="#60C8CC" transform="translate(253,305)"/>
<path d="M0 0 C2.01822917 0.06510417 4.03645833 0.13020833 6.0546875 0.1953125 C6.7146875 1.5153125 7.3746875 2.8353125 8.0546875 4.1953125 C5.38802083 3.52864583 2.72135417 2.86197917 0.0546875 2.1953125 C-0.2753125 3.1853125 -0.6053125 4.1753125 -0.9453125 5.1953125 C3.5096875 7.1753125 3.5096875 7.1753125 8.0546875 9.1953125 C8.2421875 12.0703125 8.2421875 12.0703125 8.0546875 15.1953125 C4.00110326 17.89770199 1.87158646 17.42468864 -2.9453125 17.1953125 C-3.6053125 16.8653125 -4.2653125 16.5353125 -4.9453125 16.1953125 C-4.9453125 14.8753125 -4.9453125 13.5553125 -4.9453125 12.1953125 C-4.3884375 12.5046875 -3.8315625 12.8140625 -3.2578125 13.1328125 C-0.81990817 14.25293071 1.41692936 14.75568614 4.0546875 15.1953125 C4.0546875 13.8753125 4.0546875 12.5553125 4.0546875 11.1953125 C-0.4003125 9.2153125 -0.4003125 9.2153125 -4.9453125 7.1953125 C-3.87057023 0.38861147 -3.87057023 0.38861147 0 0 Z " fill="#4BC4C6" transform="translate(81.9453125,309.8046875)"/>
<path d="M0 0 C1.32 0 2.64 0 4 0 C4 1.65 4 3.3 4 5 C5.98 5 7.96 5 10 5 C10 5.66 10 6.32 10 7 C7.69 7 5.38 7 3 7 C3.33 10.96 3.66 14.92 4 19 C5.98 19 7.96 19 10 19 C9.34 19.99 8.68 20.98 8 22 C5 22.3125 5 22.3125 2 22 C0 20 0 20 -0.1953125 16.9609375 C-0.16050781 15.18589844 -0.16050781 15.18589844 -0.125 13.375 C-0.10695313 12.18648438 -0.08890625 10.99796875 -0.0703125 9.7734375 C-0.04710938 8.85820312 -0.02390625 7.94296875 0 7 C-0.99 6.67 -1.98 6.34 -3 6 C-2.01 5.67 -1.02 5.34 0 5 C0 3.35 0 1.7 0 0 Z " fill="#57CBD1" transform="translate(96,305)"/>
<path d="M0 0 C1.32 0 2.64 0 4 0 C4 8.25 4 16.5 4 25 C2.68 25 1.36 25 0 25 C0 16.75 0 8.5 0 0 Z " fill="#6AC8CF" transform="translate(369,302)"/>
<path d="M0 0 C0.33 0 0.66 0 1 0 C1.33 4.95 1.66 9.9 2 15 C-2.29 15 -6.58 15 -11 15 C-10.34 14.67 -9.68 14.34 -9 14 C-9.20625 13.21625 -9.4125 12.4325 -9.625 11.625 C-9.74875 10.75875 -9.8725 9.8925 -10 9 C-8 7 -8 7 -5.375 6.875 C-4.59125 6.91625 -3.8075 6.9575 -3 7 C-3 8.65 -3 10.3 -3 12 C-2.01 12 -1.02 12 0 12 C0 8.04 0 4.08 0 0 Z " fill="#64CCD0" transform="translate(31,312)"/>
<path d="M0 0 C0.99 0 1.98 0 3 0 C3 8.25 3 16.5 3 25 C2.01 25 1.02 25 0 25 C0 16.75 0 8.5 0 0 Z " fill="#43C1C8" transform="translate(379,302)"/>
<path d="M0 0 C0.99 0 1.98 0 3 0 C3 8.25 3 16.5 3 25 C2.01 25 1.02 25 0 25 C0 16.75 0 8.5 0 0 Z " fill="#4AC6CD" transform="translate(224,302)"/>
<path d="M0 0 C1.32 0 2.64 0 4 0 C4 5.61 4 11.22 4 17 C2.68 17 1.36 17 0 17 C0 11.39 0 5.78 0 0 Z " fill="#58CED6" transform="translate(146,310)"/>
<path d="M0 0 C3.375 -0.125 3.375 -0.125 7 0 C7.66 0.66 8.32 1.32 9 2 C8.46428571 5.53571429 8.46428571 5.53571429 7 7 C4.0625 7.1875 4.0625 7.1875 1 7 C0.34 6.34 -0.32 5.68 -1 5 C-0.625 2.375 -0.625 2.375 0 0 Z " fill="#E4FAFB" transform="translate(187,327)"/>
<path d="M0 0 C2 2 2 2 2.1875 4.5625 C2 7 2 7 1 8 C-0.68608966 8.07205511 -2.37500659 8.08386068 -4.0625 8.0625 C-4.98160156 8.05347656 -5.90070313 8.04445313 -6.84765625 8.03515625 C-7.55792969 8.02355469 -8.26820313 8.01195312 -9 8 C-9 7.67 -9 7.34 -9 7 C-6.36 6.67 -3.72 6.34 -1 6 C-1.66 4.68 -2.32 3.36 -3 2 C-5.47266765 2.34444881 -5.47266765 2.34444881 -8 3 C-8.33 3.66 -8.66 4.32 -9 5 C-9.66 5 -10.32 5 -11 5 C-11.33 6.32 -11.66 7.64 -12 9 C-12.34982212 5.85160094 -12.24633224 4.37976221 -10.5 1.6875 C-6.80513545 -0.80653357 -4.41108115 -0.42687882 0 0 Z " fill="#4AC0C4" transform="translate(245,310)"/>
<path d="M0 0 C3.53571429 0.53571429 3.53571429 0.53571429 5 2 C5.04080783 3.99958364 5.04254356 6.00045254 5 8 C2.625 8.625 2.625 8.625 0 9 C-2 7 -2 7 -2.25 4.5 C-2 2 -2 2 0 0 Z " fill="#E1FBFA" transform="translate(189,311)"/>
<path d="M0 0 C2.97 0.99 5.94 1.98 9 3 C9 4.32 9 5.64 9 7 C7.35 7.33 5.7 7.66 4 8 C0 3.375 0 3.375 0 0 Z " fill="#E2F8F9" transform="translate(78,318)"/>
<path d="M0 0 C0.8146875 0.00257813 1.629375 0.00515625 2.46875 0.0078125 C3.2834375 0.00523437 4.098125 0.00265625 4.9375 0 C6.96875 0.1328125 6.96875 0.1328125 7.96875 1.1328125 C8.04080511 2.81890216 8.05261068 4.50781909 8.03125 6.1953125 C8.02222656 7.11441406 8.01320313 8.03351563 8.00390625 8.98046875 C7.99230469 9.69074219 7.98070313 10.40101563 7.96875 11.1328125 C7.63875 10.1428125 7.30875 9.1528125 6.96875 8.1328125 C6.30875 7.8028125 5.64875 7.4728125 4.96875 7.1328125 C4.34375 5.0703125 4.34375 5.0703125 3.96875 3.1328125 C2.64875 2.8028125 1.32875 2.4728125 -0.03125 2.1328125 C-0.36125 3.4528125 -0.69125 4.7728125 -1.03125 6.1328125 C-2.02125 6.1328125 -3.01125 6.1328125 -4.03125 6.1328125 C-2.96528852 0.19388425 -2.96528852 0.19388425 0 0 Z " fill="#4CC5C9" transform="translate(63.03125,309.8671875)"/>
<path d="M0 0 C1.65 0.33 3.3 0.66 5 1 C5.33 2.65 5.66 4.3 6 6 C4.02 6.33 2.04 6.66 0 7 C0 6.34 0 5.68 0 5 C-0.66 4.67 -1.32 4.34 -2 4 C-1.34 2.68 -0.68 1.36 0 0 Z " fill="#D2F6F8" transform="translate(114,311)"/>
<path d="M0 0 C0.33 1.32 0.66 2.64 1 4 C-1.70879335 5.35439668 -4.00933268 5.06501451 -7 5 C-6.625 2.5625 -6.625 2.5625 -6 0 C-3.50907189 -1.24546405 -2.58919267 -0.7767578 0 0 Z " fill="#D3F9FB" transform="translate(243,312)"/>
<path d="M0 0 C2.8992226 0.46761655 3.86675182 0.86675182 6 3 C6 3.99 6 4.98 6 6 C3.69 6.33 1.38 6.66 -1 7 C-1.04254356 5.00045254 -1.04080783 2.99958364 -1 1 C-0.67 0.67 -0.34 0.34 0 0 Z " fill="#DDF9FA" transform="translate(63,311)"/>
<path d="M0 0 C0.33 0 0.66 0 1 0 C1.125 2.875 1.125 2.875 1 6 C-1 8 -1 8 -3.05859375 8.265625 C-3.84363281 8.26046875 -4.62867188 8.2553125 -5.4375 8.25 C-6.61119141 8.25773437 -6.61119141 8.25773437 -7.80859375 8.265625 C-10 8 -10 8 -13 6 C-12.67 5.01 -12.34 4.02 -12 3 C-11.1646875 3.4640625 -11.1646875 3.4640625 -10.3125 3.9375 C-7.87459567 5.05761821 -5.63775814 5.56037364 -3 6 C-2.01 4.02 -1.02 2.04 0 0 Z " fill="#52B9BE" transform="translate(140,319)"/>
<path d="M0 0 C-3.465 1.485 -3.465 1.485 -7 3 C-6.72382467 4.94074861 -6.72382467 4.94074861 -6 7 C-5.01 7.66 -4.02 8.32 -3 9 C-5.875 9.125 -5.875 9.125 -9 9 C-9.66 8.34 -10.32 7.68 -11 7 C-10.67028521 3.70285207 -10.3773161 2.3773161 -8 0 C-4.69164744 -0.93312508 -3.32320026 -1.10773342 0 0 Z " fill="#50BDC0" transform="translate(120,318)"/>
<path d="M0 0 C1.4540625 0.0309375 1.4540625 0.0309375 2.9375 0.0625 C2.0625 4.9375 2.0625 4.9375 0.9375 6.0625 C-0.72867115 6.10313832 -2.39638095 6.105221 -4.0625 6.0625 C-4.105221 4.39638095 -4.10313832 2.72867115 -4.0625 1.0625 C-3.0625 0.0625 -3.0625 0.0625 0 0 Z " fill="#C1FAFB" transform="translate(66.0625,318.9375)"/>
<path d="M0 0 C3.28212246 0.43761633 4.84832931 1.52557871 7 4 C6.67 4.99 6.34 5.98 6 7 C3.69 6.34 1.38 5.68 -1 5 C-1 1 -1 1 0 0 Z " fill="#DCF9FB" transform="translate(82,311)"/>
<path d="M0 0 C0.78375 0.04125 1.5675 0.0825 2.375 0.125 C2.417721 1.79111905 2.41563832 3.45882885 2.375 5.125 C1.375 6.125 1.375 6.125 -1.1875 6.1875 C-2.3940625 6.1565625 -2.3940625 6.1565625 -3.625 6.125 C-4.25 4.25 -4.25 4.25 -4.625 2.125 C-2.625 0.125 -2.625 0.125 0 0 Z " fill="#DDFCFD" transform="translate(162.625,318.875)"/>
<path d="M0 0 C0.78375 0.04125 1.5675 0.0825 2.375 0.125 C2.417721 1.79111905 2.41563832 3.45882885 2.375 5.125 C1.375 6.125 1.375 6.125 -1.1875 6.1875 C-2.3940625 6.1565625 -2.3940625 6.1565625 -3.625 6.125 C-4.25 4.25 -4.25 4.25 -4.625 2.125 C-2.625 0.125 -2.625 0.125 0 0 Z " fill="#DCFAFB" transform="translate(116.625,318.875)"/>
<path d="M0 0 C0.78375 0.04125 1.5675 0.0825 2.375 0.125 C2.417721 1.79111905 2.41563832 3.45882885 2.375 5.125 C1.375 6.125 1.375 6.125 -1.1875 6.1875 C-2.3940625 6.1565625 -2.3940625 6.1565625 -3.625 6.125 C-4.25 4.25 -4.25 4.25 -4.625 2.125 C-2.625 0.125 -2.625 0.125 0 0 Z " fill="#E0FDFE" transform="translate(25.625,318.875)"/>
<path d="M0 0 C0.33 1.32 0.66 2.64 1 4 C-1.64 4.33 -4.28 4.66 -7 5 C-6.625 2.5625 -6.625 2.5625 -6 0 C-3.50907189 -1.24546405 -2.58919267 -0.7767578 0 0 Z " fill="#D5FBFC" transform="translate(360,312)"/>
<path d="M0 0 C3.71599191 -0.20086443 4.77208445 -0.1519437 8 2 C8 3.32 8 4.64 8 6 C5.36 5.34 2.72 4.68 0 4 C0 2.68 0 1.36 0 0 Z " fill="#E7FBFC" transform="translate(270,312)"/>
<path d="M0 0 C0.33 0 0.66 0 1 0 C1.33 4.62 1.66 9.24 2 14 C-5 14 -5 14 -8 12 C-6.68 11.67 -5.36 11.34 -4 11 C-4 9.02 -4 7.04 -4 5 C-3.34 5 -2.68 5 -2 5 C-2 7.31 -2 9.62 -2 12 C-1.34 12 -0.68 12 0 12 C0 8.04 0 4.08 0 0 Z " fill="#81CBCE" transform="translate(168,313)"/>
<path d="M0 0 C1.32 0.33 2.64 0.66 4 1 C4.33 2.65 4.66 4.3 5 6 C3.02 6.33 1.04 6.66 -1 7 C-2 4 -2 4 -1.0625 1.8125 C-0.5365625 0.9153125 -0.5365625 0.9153125 0 0 Z " fill="#E6FDFD" transform="translate(23,311)"/>
<path d="M0 0 C1.32 0.33 2.64 0.66 4 1 C4.33 2.65 4.66 4.3 5 6 C3.35 6.33 1.7 6.66 0 7 C0 6.34 0 5.68 0 5 C-0.66 4.67 -1.32 4.34 -2 4 C-1.34 2.68 -0.68 1.36 0 0 Z " fill="#DCFAFB" transform="translate(160,311)"/>
<path d="M0 0 C3.28212246 0.43761633 4.84832931 1.52557871 7 4 C6.34 4.66 5.68 5.32 5 6 C1.875 5.625 1.875 5.625 -1 5 C-1 1 -1 1 0 0 Z " fill="#E0FBFD" transform="translate(133,311)"/>
<path d="M0 0 C0.99 0 1.98 0 3 0 C3.66 0.99 4.32 1.98 5 3 C7.47266765 2.65555119 7.47266765 2.65555119 10 2 C10.33 1.34 10.66 0.68 11 0 C11.66 0 12.32 0 13 0 C12.125 3.875 12.125 3.875 11 5 C9.00390625 5.16796875 9.00390625 5.16796875 6.5625 5.1875 C5.35787109 5.20876953 5.35787109 5.20876953 4.12890625 5.23046875 C2 5 2 5 0 3 C0 2.01 0 1.02 0 0 Z " fill="#50BEC2" transform="translate(266,322)"/>
<path d="M0 0 C1.23556641 0.01740234 1.23556641 0.01740234 2.49609375 0.03515625 C3.32238281 0.04417969 4.14867188 0.05320312 5 0.0625 C5.63808594 0.07410156 6.27617188 0.08570313 6.93359375 0.09765625 C7.26359375 0.75765625 7.59359375 1.41765625 7.93359375 2.09765625 C7.60359375 2.75765625 7.27359375 3.41765625 6.93359375 4.09765625 C6.27359375 4.09765625 5.61359375 4.09765625 4.93359375 4.09765625 C4.60359375 3.43765625 4.27359375 2.77765625 3.93359375 2.09765625 C2.61359375 2.09765625 1.29359375 2.09765625 -0.06640625 2.09765625 C-0.72640625 3.41765625 -1.38640625 4.73765625 -2.06640625 6.09765625 C-2.72640625 6.09765625 -3.38640625 6.09765625 -4.06640625 6.09765625 C-2.99738005 0.14165312 -2.99738005 0.14165312 0 0 Z " fill="#4BC2C7" transform="translate(114.06640625,309.90234375)"/>
<path d="M0 0 C2.475 0.495 2.475 0.495 5 1 C5.36625971 5.51720311 5.36625971 5.51720311 3.625 7.8125 C2 9 2 9 0 9 C0.185625 8.071875 0.37125 7.14375 0.5625 6.1875 C1.24123881 2.98656229 1.24123881 2.98656229 0 0 Z " fill="#54C6C9" transform="translate(194,326)"/>
<path d="M0 0 C0.33 0 0.66 0 1 0 C1 3.63 1 7.26 1 11 C3.64 11 6.28 11 9 11 C8.01 12.485 8.01 12.485 7 14 C3.9375 14.25 3.9375 14.25 1 14 C0 13 0 13 -0.09765625 10.05859375 C-0.08605469 8.86363281 -0.07445313 7.66867187 -0.0625 6.4375 C-0.05347656 5.23996094 -0.04445313 4.04242188 -0.03515625 2.80859375 C-0.02355469 1.88175781 -0.01195313 0.95492188 0 0 Z " fill="#4EC1C6" transform="translate(97,313)"/>
<path d="M0 0 C-0.33 3.96 -0.66 7.92 -1 12 C-1.33 12 -1.66 12 -2 12 C-2 9.36 -2 6.72 -2 4 C-2.66 4 -3.32 4 -4 4 C-4 3.34 -4 2.68 -4 2 C-5.32 1.67 -6.64 1.34 -8 1 C-5.10765685 0.17361624 -3.11257569 0 0 0 Z " fill="#DE905B" transform="translate(320,116)"/>
<path d="M0 0 C0.6875 1.8125 0.6875 1.8125 1 4 C0 5.625 0 5.625 -2 7 C-4.64996326 7.2172101 -7.05076558 7.28351554 -9.6875 7.1875 C-10.38939453 7.17396484 -11.09128906 7.16042969 -11.81445312 7.14648438 C-13.54329829 7.11120182 -15.27174765 7.05739583 -17 7 C-17 6.67 -17 6.34 -17 6 C-15.78763672 5.97873047 -15.78763672 5.97873047 -14.55078125 5.95703125 C-7.51070878 5.91384796 -7.51070878 5.91384796 -1.75 2.4375 C-0.88375 1.2309375 -0.88375 1.2309375 0 0 Z " fill="#D89061" transform="translate(103,233)"/>
<path d="M0 0 C0.33 0 0.66 0 1 0 C1 4.29 1 8.58 1 13 C1.66 13.33 2.32 13.66 3 14 C1.125 14.625 1.125 14.625 -1 15 C-1.66 14.34 -2.32 13.68 -3 13 C-2.34 13 -1.68 13 -1 13 C-0.67 8.71 -0.34 4.42 0 0 Z " fill="#55CDD2" transform="translate(71,312)"/>
<path d="M0 0 C0.66 1.32 1.32 2.64 2 4 C0.625 6.75 0.625 6.75 -1 9 C-2.32 8.67 -3.64 8.34 -5 8 C-3.35 5.36 -1.7 2.72 0 0 Z " fill="#57C1C3" transform="translate(393,326)"/>
<path d="M0 0 C0.33 0 0.66 0 1 0 C1 4.29 1 8.58 1 13 C0.01 12.67 -0.98 12.34 -2 12 C-1.85831863 10.56208484 -1.71148957 9.1246763 -1.5625 7.6875 C-1.48128906 6.88699219 -1.40007813 6.08648437 -1.31640625 5.26171875 C-1 3 -1 3 0 0 Z " fill="#4BC0C5" transform="translate(30,311)"/>
<path d="M0 0 C8.57142857 -0.28571429 8.57142857 -0.28571429 12 2 C6.71502591 3.76165803 6.71502591 3.76165803 4 4 C1.5 2.125 1.5 2.125 0 0 Z " fill="#F7E9D4" transform="translate(238,154)"/>
<path d="M0 0 C2.05078125 0.03255208 4.1015625 0.06510417 6.15234375 0.09765625 C6.81234375 1.41765625 7.47234375 2.73765625 8.15234375 4.09765625 C6.81901042 3.76432292 5.48567708 3.43098958 4.15234375 3.09765625 C3.47171875 2.93265625 2.79109375 2.76765625 2.08984375 2.59765625 C0.42430335 2.16783937 -1.21581967 1.64160178 -2.84765625 1.09765625 C-1.84765625 0.09765625 -1.84765625 0.09765625 0 0 Z " fill="#49C2C3" transform="translate(132.84765625,309.90234375)"/>
<path d="M0 0 C0.66 0 1.32 0 2 0 C2.268125 0.61875 2.53625 1.2375 2.8125 1.875 C3.95556848 4.2995233 3.95556848 4.2995233 7 6 C5.00045254 6.04254356 2.99958364 6.04080783 1 6 C0 5 0 5 -0.0625 2.4375 C-0.041875 1.633125 -0.02125 0.82875 0 0 Z " fill="#43C0C2" transform="translate(156,321)"/>
<path d="M0 0 C1.9375 0.8125 1.9375 0.8125 4 2 C4.33 2.99 4.66 3.98 5 5 C3.35 4.67 1.7 4.34 0 4 C0 2.68 0 1.36 0 0 Z " fill="#59C6CB" transform="translate(128,322)"/>
<path d="M0 0 C1.98 0 3.96 0 6 0 C5.67 1.98 5.34 3.96 5 6 C4.34 5.01 3.68 4.02 3 3 C2.01 2.67 1.02 2.34 0 2 C0 1.34 0 0.68 0 0 Z " fill="#4CCED0" transform="translate(134,318)"/>
<path d="M0 0 C0 3 0 3 -1.3125 4.38671875 C-2.875 5.59114583 -4.4375 6.79557292 -6 8 C-6.66 7.67 -7.32 7.34 -8 7 C-5.36 4.69 -2.72 2.38 0 0 Z " fill="#E0874B" transform="translate(171,156)"/>
<path d="M0 0 C1.32 0 2.64 0 4 0 C4 1.32 4 2.64 4 4 C2.35 4 0.7 4 -1 4 C-0.67 2.68 -0.34 1.36 0 0 Z " fill="#FBFDFE" transform="translate(64,320)"/>
<path d="M0 0 C1.9375 0.8125 1.9375 0.8125 4 2 C4.33 2.99 4.66 3.98 5 5 C3.35 4.67 1.7 4.34 0 4 C0 2.68 0 1.36 0 0 Z " fill="#55C2C3" transform="translate(77,322)"/>
<path d="M0 0 C0 0.99 0 1.98 0 3 C-2.92879371 2.37240135 -5.36095629 1.41377341 -8 0 C-4.71303767 -0.79953138 -3.28976808 -1.09658936 0 0 Z " fill="#60D2D4" transform="translate(279,311)"/>
</svg>
